<svg width="18" height="17" viewBox="0 0 18 17" fill="none" xmlns="http://www.w3.org/2000/svg">
<path d="M10.3102 16.8631V11.0048H12.2636L12.6352 8.58064H10.3102V7.00731C10.3069 6.97481 10.3052 6.93731 10.3052 6.89897C10.3052 6.22981 10.8477 5.68731 11.5169 5.68731C11.5736 5.68731 11.6286 5.69147 11.6827 5.69897L11.6761 5.69814H12.7327V3.63564C12.1752 3.54064 11.5261 3.48147 10.8652 3.47231H10.8561C10.7886 3.46647 10.7102 3.46397 10.6311 3.46397C8.9969 3.46397 7.67273 4.78814 7.67273 6.42231C7.67273 6.53231 7.67857 6.64148 7.69024 6.74814L7.6894 6.73481V8.58148H5.5594V11.0056H7.6894V16.864C3.6569 16.2081 0.615234 12.7506 0.615234 8.58314C0.615234 3.95314 4.36857 0.198975 8.9994 0.198975C13.6302 0.198975 17.3836 3.95231 17.3836 8.58314C17.3836 12.7506 14.3419 16.209 10.3577 16.8581L10.3094 16.8648L10.3102 16.8631Z" fill="white"/>
</svg>
