<svg width="18" height="19" viewBox="0 0 18 19" fill="none" xmlns="http://www.w3.org/2000/svg">
<path d="M15.2826 0.529785H2.80331C1.26601 0.529785 0 1.78979 0 3.31978V15.6498C0 17.2698 1.26601 18.5298 2.80331 18.5298H15.1921C16.7294 18.5298 17.9954 17.2698 17.9954 15.7398V3.31978C18.0859 1.78979 16.8199 0.529785 15.2826 0.529785ZM11.0324 14.3898L10.8515 14.1198L8.40993 10.6098L5.15447 14.3898H4.34061L8.04821 10.0698L4.97361 5.65978L4.34061 4.66979H7.14392L7.32478 4.93979L9.58551 8.26979L11.9367 5.47978L12.6601 4.66979H13.474L9.94723 8.80978L13.1123 13.3998L13.8357 14.3898H11.0324Z" fill="white"/>
</svg>
