<svg width="20" height="15" viewBox="0 0 20 15" fill="none" xmlns="http://www.w3.org/2000/svg">
<path d="M16.3542 1.70145C15.2767 1.19311 14.0242 0.790613 12.7142 0.556447L12.6226 0.543113C12.6201 0.54228 12.6167 0.54228 12.6134 0.54228C12.6042 0.54228 12.5959 0.54478 12.5884 0.548114C12.5776 0.553114 12.5692 0.561447 12.5634 0.571447C12.4201 0.823114 12.2642 1.13645 12.1242 1.45811L12.0984 1.52561C11.4684 1.42478 10.7426 1.36728 10.0026 1.36728C9.26258 1.36728 8.53674 1.42478 7.82841 1.53561L7.90674 1.52561C7.74258 1.14145 7.58425 0.828114 7.41008 0.52478L7.43424 0.570613C7.42841 0.560613 7.42008 0.55228 7.40925 0.54728C7.40175 0.543947 7.39341 0.541447 7.38425 0.541447C7.38091 0.541447 7.37758 0.541447 7.37508 0.54228C5.97341 0.788114 4.72091 1.19061 3.55008 1.73978L3.64258 1.70061C3.63258 1.70478 3.62424 1.71145 3.61841 1.72061C1.87341 4.19061 0.830078 7.26478 0.830078 10.5823C0.830078 11.1364 0.859245 11.6839 0.915911 12.2231L0.910078 12.1556C0.912578 12.1731 0.920912 12.1881 0.934245 12.1981C2.24258 13.1764 3.76341 13.9656 5.40425 14.4831L5.51175 14.5123C5.51675 14.5139 5.52258 14.5148 5.52841 14.5148C5.54758 14.5148 5.56508 14.5048 5.57508 14.4906C5.90258 14.0506 6.21341 13.5523 6.48341 13.0289L6.51175 12.9681C6.51591 12.9606 6.51841 12.9514 6.51841 12.9414C6.51841 12.9381 6.51841 12.9348 6.51758 12.9314C6.51508 12.9189 6.50925 12.9081 6.50091 12.8998C6.49508 12.8939 6.48841 12.8898 6.48091 12.8873C5.92258 12.6714 5.45174 12.4423 5.00258 12.1798L5.05091 12.2056C5.03341 12.1948 5.02258 12.1764 5.02258 12.1548C5.02258 12.1356 5.03175 12.1189 5.04508 12.1081C5.14175 12.0356 5.23758 11.9606 5.32925 11.8848C5.33925 11.8764 5.35175 11.8723 5.36508 11.8723C5.37341 11.8723 5.38091 11.8739 5.38758 11.8773C6.73675 12.5264 8.32174 12.9048 9.99425 12.9048C11.6667 12.9048 13.2517 12.5256 14.6659 11.8489L14.6009 11.8773C14.6076 11.8739 14.6159 11.8723 14.6242 11.8723C14.6384 11.8723 14.6517 11.8773 14.6617 11.8856C14.7534 11.9614 14.8492 12.0364 14.9459 12.1089C14.9534 12.1148 14.9601 12.1223 14.9642 12.1306C14.9676 12.1381 14.9701 12.1464 14.9701 12.1556C14.9701 12.1564 14.9701 12.1573 14.9701 12.1581C14.9692 12.1681 14.9667 12.1773 14.9617 12.1856C14.9567 12.1939 14.9501 12.2006 14.9417 12.2056C14.5384 12.4464 14.0667 12.6748 13.5751 12.8639L13.5101 12.8856C13.4942 12.8914 13.4817 12.9039 13.4759 12.9198C13.4734 12.9256 13.4726 12.9323 13.4726 12.9398C13.4726 12.9414 13.4726 12.9423 13.4726 12.9439C13.4734 12.9523 13.4759 12.9606 13.4792 12.9673C13.7851 13.5539 14.0959 14.0523 14.4392 14.5248L14.4151 14.4898C14.4259 14.5048 14.4426 14.5139 14.4626 14.5139C14.4684 14.5139 14.4742 14.5131 14.4801 14.5114C16.2317 13.9656 17.7542 13.1764 19.1042 12.1681L19.0642 12.1964C19.0776 12.1873 19.0867 12.1714 19.0884 12.1539C19.1417 11.6748 19.1717 11.1181 19.1717 10.5556C19.1717 7.24561 18.1251 4.18061 16.3451 1.67311L16.3767 1.72061C16.3742 1.71561 16.3717 1.71061 16.3676 1.70728C16.3634 1.70395 16.3592 1.70061 16.3542 1.69895V1.70145ZM6.96008 10.0739C6.03675 10.0131 5.31008 9.24978 5.31008 8.31561C5.31008 8.28395 5.31091 8.25311 5.31258 8.22228V8.22645C5.31091 8.19728 5.31008 8.16228 5.31008 8.12811C5.31008 7.19645 6.03758 6.43395 6.95591 6.37895H6.96091C7.88341 6.42895 8.61258 7.18978 8.61258 8.11978C8.61258 8.15728 8.61175 8.19478 8.60925 8.23228V8.22728C8.61091 8.25645 8.61174 8.29061 8.61174 8.32478C8.61174 9.25728 7.88425 10.0189 6.96591 10.0739H6.96008ZM13.0517 10.0739C12.1284 10.0131 11.4017 9.24895 11.4017 8.31478C11.4017 8.28395 11.4026 8.25311 11.4042 8.22228V8.22645C11.4026 8.19728 11.4017 8.16228 11.4017 8.12811C11.4017 7.19645 12.1292 6.43395 13.0476 6.37895H13.0526C13.9751 6.42895 14.7034 7.18895 14.7034 8.11895C14.7034 8.15728 14.7026 8.19478 14.7001 8.23228V8.22728C14.7017 8.25811 14.7034 8.29311 14.7034 8.32895C14.7034 9.25978 13.9751 10.0214 13.0576 10.0739H13.0526H13.0517Z" fill="white"/>
</svg>
