<svg width="18" height="17" viewBox="0 0 18 17" fill="none" xmlns="http://www.w3.org/2000/svg">
<path d="M8.99973 16.8631C8.99806 16.8631 8.99556 16.8631 8.99306 16.8631C8.11473 16.8631 7.26806 16.7264 6.47389 16.4739L6.53306 16.4898C6.94389 15.8614 7.29473 15.1389 7.54889 14.3714L7.56806 14.3056C7.66889 13.9156 8.08556 12.3231 8.08556 12.3231C8.49389 12.9056 9.16223 13.2823 9.91889 13.2823C9.94556 13.2823 9.97139 13.2814 9.99806 13.2806H9.99389C12.5072 13.2806 14.3189 10.9689 14.3189 8.09561C14.2781 5.42561 12.1039 3.27728 9.42806 3.27728C9.34139 3.27728 9.25473 3.27978 9.16889 3.28394L9.18056 3.28311C5.58556 3.28311 3.67306 5.69561 3.67306 8.32728C3.67306 9.55061 4.32473 11.0723 5.36306 11.5564C5.52056 11.6306 5.60473 11.5964 5.64223 11.4456C5.66889 11.3314 5.81056 10.7631 5.87389 10.5014C5.87973 10.4806 5.88389 10.4573 5.88389 10.4331C5.88389 10.3673 5.85889 10.3073 5.81723 10.2631C5.43473 9.73561 5.20473 9.07561 5.20223 8.36228C5.20223 8.35811 5.20223 8.35311 5.20223 8.34894C5.20223 6.35728 6.81639 4.74311 8.80806 4.74311C8.86389 4.74311 8.91889 4.74478 8.97389 4.74644H8.96639C9.02389 4.74311 9.09139 4.74061 9.15889 4.74061C10.9756 4.74061 12.4489 6.21394 12.4489 8.03061C12.4489 8.06811 12.4481 8.10478 12.4472 8.14228V8.13728C12.4472 10.3923 11.3081 11.9548 9.82639 11.9548C9.80806 11.9556 9.78556 11.9564 9.76389 11.9564C9.09639 11.9564 8.55556 11.4156 8.55556 10.7481C8.55556 10.6423 8.56889 10.5389 8.59473 10.4406L8.59306 10.4489C8.87139 9.66728 9.11139 8.73228 9.26889 7.77061L9.28223 7.67394C9.28723 7.63561 9.28973 7.59228 9.28973 7.54728C9.28973 6.96894 8.82139 6.50061 8.24306 6.50061C8.23723 6.50061 8.23139 6.50061 8.22556 6.50061C7.38889 6.50061 6.71806 7.36394 6.71806 8.52311C6.71806 8.53478 6.71806 8.54894 6.71806 8.56228C6.71806 8.99478 6.80973 9.40644 6.97473 9.77811L6.96723 9.75894C6.96723 9.75894 6.14389 13.2464 5.99306 13.8989C5.92639 14.2889 5.88806 14.7381 5.88806 15.1964C5.88806 15.5831 5.91556 15.9631 5.96806 16.3348L5.96306 16.2923C2.83139 15.0448 0.657227 12.0389 0.657227 8.52561C0.657227 3.92061 4.39056 0.18811 8.99473 0.18811C13.5989 0.18811 17.3322 3.92144 17.3322 8.52561C17.3322 13.1289 13.6022 16.8606 8.99889 16.8631H8.99973Z" fill="white"/>
</svg>
